<mxfile host="app.diagrams.net" modified="2023-12-07T02:50:41.726Z" agent="Mozilla/5.0 (Windows NT 10.0; Win64; x64) AppleWebKit/537.36 (KHTML, like Gecko) Chrome/119.0.0.0 Safari/537.36 Edg/119.0.0.0" etag="x-ZvOfx0zVOprh7t2nLd" version="22.1.7" type="github">
  <diagram id="C5RBs43oDa-KdzZeNtuy" name="Page-1">
    <mxGraphModel dx="757" dy="583" grid="0" gridSize="10" guides="1" tooltips="1" connect="1" arrows="1" fold="1" page="1" pageScale="1" pageWidth="827" pageHeight="1169" math="0" shadow="0">
      <root>
        <mxCell id="WIyWlLk6GJQsqaUBKTNV-0" />
        <mxCell id="WIyWlLk6GJQsqaUBKTNV-1" parent="WIyWlLk6GJQsqaUBKTNV-0" />
        <mxCell id="anvmD5nSPNhNmB6iQBok-12" value="" style="whiteSpace=wrap;html=1;fillColor=none;dashed=1;" vertex="1" parent="WIyWlLk6GJQsqaUBKTNV-1">
          <mxGeometry x="171" y="239" width="348" height="292" as="geometry" />
        </mxCell>
        <mxCell id="anvmD5nSPNhNmB6iQBok-5" style="edgeStyle=orthogonalEdgeStyle;rounded=0;orthogonalLoop=1;jettySize=auto;html=1;" edge="1" parent="WIyWlLk6GJQsqaUBKTNV-1" source="anvmD5nSPNhNmB6iQBok-0" target="anvmD5nSPNhNmB6iQBok-2">
          <mxGeometry relative="1" as="geometry" />
        </mxCell>
        <mxCell id="anvmD5nSPNhNmB6iQBok-7" style="edgeStyle=orthogonalEdgeStyle;rounded=0;orthogonalLoop=1;jettySize=auto;html=1;" edge="1" parent="WIyWlLk6GJQsqaUBKTNV-1" source="anvmD5nSPNhNmB6iQBok-0" target="anvmD5nSPNhNmB6iQBok-3">
          <mxGeometry relative="1" as="geometry" />
        </mxCell>
        <mxCell id="anvmD5nSPNhNmB6iQBok-0" value="算法流程建模&lt;br&gt;CSC1" style="ellipse;whiteSpace=wrap;html=1;aspect=fixed;" vertex="1" parent="WIyWlLk6GJQsqaUBKTNV-1">
          <mxGeometry x="220" y="293" width="80" height="80" as="geometry" />
        </mxCell>
        <mxCell id="anvmD5nSPNhNmB6iQBok-14" style="edgeStyle=orthogonalEdgeStyle;rounded=0;orthogonalLoop=1;jettySize=auto;html=1;" edge="1" parent="WIyWlLk6GJQsqaUBKTNV-1" source="anvmD5nSPNhNmB6iQBok-2">
          <mxGeometry relative="1" as="geometry">
            <mxPoint x="591.3333841959636" y="333.0000000000001" as="targetPoint" />
          </mxGeometry>
        </mxCell>
        <mxCell id="anvmD5nSPNhNmB6iQBok-2" value="算法流程&lt;br&gt;模型管理&lt;br&gt;CSC2" style="ellipse;whiteSpace=wrap;html=1;aspect=fixed;" vertex="1" parent="WIyWlLk6GJQsqaUBKTNV-1">
          <mxGeometry x="430" y="293" width="80" height="80" as="geometry" />
        </mxCell>
        <mxCell id="anvmD5nSPNhNmB6iQBok-3" value="模型检查CSC3" style="ellipse;whiteSpace=wrap;html=1;aspect=fixed;" vertex="1" parent="WIyWlLk6GJQsqaUBKTNV-1">
          <mxGeometry x="220" y="442" width="80" height="80" as="geometry" />
        </mxCell>
        <mxCell id="anvmD5nSPNhNmB6iQBok-4" value="需求追踪&lt;br&gt;CSC4" style="ellipse;whiteSpace=wrap;html=1;aspect=fixed;" vertex="1" parent="WIyWlLk6GJQsqaUBKTNV-1">
          <mxGeometry x="430" y="442" width="80" height="80" as="geometry" />
        </mxCell>
        <mxCell id="anvmD5nSPNhNmB6iQBok-6" value="算法流程模型" style="text;html=1;align=center;verticalAlign=middle;resizable=0;points=[];autosize=1;strokeColor=none;fillColor=none;" vertex="1" parent="WIyWlLk6GJQsqaUBKTNV-1">
          <mxGeometry x="320" y="306" width="90" height="26" as="geometry" />
        </mxCell>
        <mxCell id="anvmD5nSPNhNmB6iQBok-8" value="算法流程模型" style="text;html=1;align=center;verticalAlign=middle;resizable=0;points=[];autosize=1;strokeColor=none;fillColor=none;" vertex="1" parent="WIyWlLk6GJQsqaUBKTNV-1">
          <mxGeometry x="166" y="395" width="90" height="26" as="geometry" />
        </mxCell>
        <mxCell id="anvmD5nSPNhNmB6iQBok-10" value="" style="endArrow=classic;html=1;rounded=0;entryX=0;entryY=0.5;entryDx=0;entryDy=0;exitX=1;exitY=1;exitDx=0;exitDy=0;" edge="1" parent="WIyWlLk6GJQsqaUBKTNV-1" source="anvmD5nSPNhNmB6iQBok-0" target="anvmD5nSPNhNmB6iQBok-4">
          <mxGeometry width="50" height="50" relative="1" as="geometry">
            <mxPoint x="324" y="383" as="sourcePoint" />
            <mxPoint x="374" y="333" as="targetPoint" />
          </mxGeometry>
        </mxCell>
        <mxCell id="anvmD5nSPNhNmB6iQBok-11" value="算法流程模型" style="text;html=1;align=center;verticalAlign=middle;resizable=0;points=[];autosize=1;strokeColor=none;fillColor=none;rotation=40;" vertex="1" parent="WIyWlLk6GJQsqaUBKTNV-1">
          <mxGeometry x="324" y="395" width="90" height="26" as="geometry" />
        </mxCell>
        <mxCell id="anvmD5nSPNhNmB6iQBok-15" style="edgeStyle=orthogonalEdgeStyle;rounded=0;orthogonalLoop=1;jettySize=auto;html=1;entryX=0;entryY=0.5;entryDx=0;entryDy=0;" edge="1" parent="WIyWlLk6GJQsqaUBKTNV-1" source="anvmD5nSPNhNmB6iQBok-13" target="anvmD5nSPNhNmB6iQBok-0">
          <mxGeometry relative="1" as="geometry">
            <Array as="points">
              <mxPoint x="622" y="549" />
              <mxPoint x="152" y="549" />
              <mxPoint x="152" y="333" />
            </Array>
          </mxGeometry>
        </mxCell>
        <mxCell id="anvmD5nSPNhNmB6iQBok-13" value="外部工具" style="rounded=0;whiteSpace=wrap;html=1;rotation=90;" vertex="1" parent="WIyWlLk6GJQsqaUBKTNV-1">
          <mxGeometry x="562" y="355" width="120" height="60" as="geometry" />
        </mxCell>
        <mxCell id="anvmD5nSPNhNmB6iQBok-21" value="" style="edgeStyle=orthogonalEdgeStyle;rounded=0;orthogonalLoop=1;jettySize=auto;html=1;" edge="1" parent="WIyWlLk6GJQsqaUBKTNV-1" source="anvmD5nSPNhNmB6iQBok-17" target="anvmD5nSPNhNmB6iQBok-19">
          <mxGeometry relative="1" as="geometry" />
        </mxCell>
        <mxCell id="anvmD5nSPNhNmB6iQBok-22" style="edgeStyle=orthogonalEdgeStyle;rounded=0;orthogonalLoop=1;jettySize=auto;html=1;" edge="1" parent="WIyWlLk6GJQsqaUBKTNV-1" source="anvmD5nSPNhNmB6iQBok-17" target="anvmD5nSPNhNmB6iQBok-18">
          <mxGeometry relative="1" as="geometry" />
        </mxCell>
        <mxCell id="anvmD5nSPNhNmB6iQBok-17" value="算法流程建模&lt;br&gt;CSC1" style="ellipse;whiteSpace=wrap;html=1;aspect=fixed;" vertex="1" parent="WIyWlLk6GJQsqaUBKTNV-1">
          <mxGeometry x="220" y="621" width="80" height="80" as="geometry" />
        </mxCell>
        <mxCell id="anvmD5nSPNhNmB6iQBok-18" value="算法流程&lt;br&gt;模型管理&lt;br&gt;CSC2" style="ellipse;whiteSpace=wrap;html=1;aspect=fixed;" vertex="1" parent="WIyWlLk6GJQsqaUBKTNV-1">
          <mxGeometry x="374" y="621" width="80" height="80" as="geometry" />
        </mxCell>
        <mxCell id="anvmD5nSPNhNmB6iQBok-24" style="edgeStyle=orthogonalEdgeStyle;rounded=0;orthogonalLoop=1;jettySize=auto;html=1;entryX=0;entryY=0.5;entryDx=0;entryDy=0;" edge="1" parent="WIyWlLk6GJQsqaUBKTNV-1" source="anvmD5nSPNhNmB6iQBok-19" target="anvmD5nSPNhNmB6iQBok-17">
          <mxGeometry relative="1" as="geometry">
            <Array as="points">
              <mxPoint x="200" y="805" />
              <mxPoint x="200" y="661" />
            </Array>
          </mxGeometry>
        </mxCell>
        <mxCell id="anvmD5nSPNhNmB6iQBok-19" value="模型检查&lt;br&gt;CSC3" style="ellipse;whiteSpace=wrap;html=1;aspect=fixed;" vertex="1" parent="WIyWlLk6GJQsqaUBKTNV-1">
          <mxGeometry x="220" y="759" width="80" height="80" as="geometry" />
        </mxCell>
        <mxCell id="anvmD5nSPNhNmB6iQBok-20" value="需求追踪&lt;br&gt;CSC4" style="ellipse;whiteSpace=wrap;html=1;aspect=fixed;" vertex="1" parent="WIyWlLk6GJQsqaUBKTNV-1">
          <mxGeometry x="369" y="759" width="80" height="80" as="geometry" />
        </mxCell>
        <mxCell id="anvmD5nSPNhNmB6iQBok-23" value="" style="endArrow=classic;html=1;rounded=0;exitX=1;exitY=1;exitDx=0;exitDy=0;entryX=0;entryY=0.5;entryDx=0;entryDy=0;" edge="1" parent="WIyWlLk6GJQsqaUBKTNV-1" source="anvmD5nSPNhNmB6iQBok-17" target="anvmD5nSPNhNmB6iQBok-20">
          <mxGeometry width="50" height="50" relative="1" as="geometry">
            <mxPoint x="324" y="745" as="sourcePoint" />
            <mxPoint x="374" y="695" as="targetPoint" />
          </mxGeometry>
        </mxCell>
        <mxCell id="anvmD5nSPNhNmB6iQBok-25" value="控制命令" style="text;html=1;align=center;verticalAlign=middle;resizable=0;points=[];autosize=1;strokeColor=none;fillColor=none;" vertex="1" parent="WIyWlLk6GJQsqaUBKTNV-1">
          <mxGeometry x="300" y="634" width="66" height="26" as="geometry" />
        </mxCell>
        <mxCell id="anvmD5nSPNhNmB6iQBok-26" value="控制命令" style="text;html=1;align=center;verticalAlign=middle;resizable=0;points=[];autosize=1;strokeColor=none;fillColor=none;rotation=55;" vertex="1" parent="WIyWlLk6GJQsqaUBKTNV-1">
          <mxGeometry x="303" y="716" width="66" height="26" as="geometry" />
        </mxCell>
        <mxCell id="anvmD5nSPNhNmB6iQBok-27" value="控制&lt;br&gt;命令" style="text;html=1;align=center;verticalAlign=middle;resizable=0;points=[];autosize=1;strokeColor=none;fillColor=none;" vertex="1" parent="WIyWlLk6GJQsqaUBKTNV-1">
          <mxGeometry x="217" y="706" width="42" height="41" as="geometry" />
        </mxCell>
        <mxCell id="anvmD5nSPNhNmB6iQBok-29" value="执行&lt;br&gt;状态" style="text;html=1;align=center;verticalAlign=middle;resizable=0;points=[];autosize=1;strokeColor=none;fillColor=none;" vertex="1" parent="WIyWlLk6GJQsqaUBKTNV-1">
          <mxGeometry x="154" y="708.5" width="42" height="41" as="geometry" />
        </mxCell>
      </root>
    </mxGraphModel>
  </diagram>
</mxfile>
